<svg xmlns="http://www.w3.org/2000/svg" width="24" height="24" viewBox="0 0 24 24"><g fill="none" fill-rule="evenodd" stroke="#4A4A4A"><path d="M21.768 8.96h.909a1 1 0 0 1 1 1v.545a1 1 0 0 1-1 1h-.91v2.545a7.003 7.003 0 0 1-6.736-5.09H11.95a1 1 0 0 1-1-1V6.14a1 1 0 0 1 1-1h3.081a7.003 7.003 0 0 1 6.737-5.09v2.545h.909a1 1 0 0 1 1 1v.545a1 1 0 0 1-1 1h-.91V8.96z" transform="scale(-1 1) rotate(45 0 -34.748)"/><path d="M5.861 19.084H2.78a1 1 0 0 1-1-1v-1.818a1 1 0 0 1 1-1H5.86a7.003 7.003 0 0 1 6.737-5.091v14a7.003 7.003 0 0 1-6.737-5.091z" transform="scale(1 -1) rotate(45 48.652 0)"/></g></svg>